<?xml version="1.0" standalone="no"?><!-- Generator: Gravit.io --><svg xmlns="http://www.w3.org/2000/svg" xmlns:xlink="http://www.w3.org/1999/xlink" style="isolation:isolate" viewBox="0 0 92.62 106.95" width="92.62" height="106.95"><defs><clipPath id="_clipPath_B5CXyUo6uPcaWlii5zP77WS0ePDOEP1d"><rect width="92.62" height="106.95"/></clipPath></defs><g clip-path="url(#_clipPath_B5CXyUo6uPcaWlii5zP77WS0ePDOEP1d)"><g opacity="0.8"><path d=" M 0 26.74 L 46.31 0 L 92.62 26.74 L 92.62 80.21 L 46.31 106.95 L 0 80.21 L 0 26.74 L 0 26.74 Z " fill="rgb(255,255,0)"/></g><path d=" M 21.65 39.239 L 46.31 25 L 70.97 39.239 L 70.97 67.711 L 46.31 81.95 L 21.65 67.711 L 21.65 39.239 L 21.65 39.239 Z " fill="rgb(255,255,255)"/><path d=" M 76.478 49.086 L 72.32 43.29 L 68.162 49.086 L 67.238 48.414 L 72.32 39.888 L 77.402 48.414 L 76.478 49.086 L 76.478 49.086 Z  M 31.886 66.81 L 30.782 66.81 L 30.782 51.138 L 31.31 51.138 L 41.534 62.898 L 41.534 62.898 Q 42.086 63.522 42.554 64.134 L 42.554 64.134 L 42.554 64.134 Q 43.022 64.746 43.046 64.77 L 43.046 64.77 L 43.046 64.77 Q 42.998 64.194 42.998 62.514 L 42.998 62.514 L 42.998 51.234 L 44.102 51.234 L 44.102 66.906 L 43.574 66.906 L 33.158 54.954 L 31.838 53.346 L 31.838 53.346 Q 31.886 53.826 31.886 55.602 L 31.886 55.602 L 31.886 66.81 L 31.886 66.81 Z  M 54.854 65.994 L 54.854 65.994 L 54.854 65.994 Q 57.926 65.994 59.786 64.338 L 59.786 64.338 L 59.786 64.338 Q 61.646 62.682 61.646 59.346 L 61.646 59.346 L 61.646 59.346 Q 61.646 56.01 59.546 54.042 L 59.546 54.042 L 59.546 54.042 Q 57.446 52.074 54.374 52.074 L 54.374 52.074 L 54.374 52.074 Q 52.19 52.074 51.014 52.17 L 51.014 52.17 L 51.014 65.826 L 51.014 65.826 Q 52.454 65.994 54.854 65.994 Z  M 54.374 51.09 L 54.374 51.09 L 54.374 51.09 Q 57.974 51.09 60.386 53.31 L 60.386 53.31 L 60.386 53.31 Q 62.798 55.53 62.798 59.346 L 62.798 59.346 L 62.798 59.346 Q 62.798 63.162 60.578 65.082 L 60.578 65.082 L 60.578 65.082 Q 58.358 67.002 54.854 67.002 L 54.854 67.002 L 54.854 67.002 Q 52.43 67.002 49.862 66.762 L 49.862 66.762 L 49.862 51.234 L 49.862 51.234 Q 51.782 51.09 54.374 51.09 Z  M 24.458 49.086 L 20.3 43.29 L 16.142 49.086 L 15.218 48.414 L 20.3 39.888 L 25.382 48.414 L 24.458 49.086 L 24.458 49.086 Z " fill="rgb(0,191,255)"/></g></svg>